<?xml version="1.0" encoding="UTF-8" standalone="no"?>
<!-- Created with Inkscape (http://www.inkscape.org/) -->

<svg
   xmlns:dc="http://purl.org/dc/elements/1.1/"
   xmlns:cc="http://creativecommons.org/ns#"
   xmlns:rdf="http://www.w3.org/1999/02/22-rdf-syntax-ns#"
   xmlns:svg="http://www.w3.org/2000/svg"
   xmlns="http://www.w3.org/2000/svg"
   xmlns:sodipodi="http://sodipodi.sourceforge.net/DTD/sodipodi-0.dtd"
   xmlns:inkscape="http://www.inkscape.org/namespaces/inkscape"
   width="102.49505"
   height="82.493202"
   id="svg5148"
   version="1.1"
   inkscape:version="0.48.5 r10040"
   sodipodi:docname="Nou document 9">
  <defs
     id="defs5150">
    <clipPath
       id="clipPath4367"
       clipPathUnits="userSpaceOnUse">
      <path
         inkscape:connector-curvature="0"
         id="path4369"
         d="m 0,0 2384,0 0,3370 L 0,3370 0,0 z" />
    </clipPath>
  </defs>
  <sodipodi:namedview
     id="base"
     pagecolor="#ffffff"
     bordercolor="#666666"
     borderopacity="1.0"
     inkscape:pageopacity="0.0"
     inkscape:pageshadow="2"
     inkscape:zoom="0.35"
     inkscape:cx="183.3916"
     inkscape:cy="-93.037719"
     inkscape:document-units="px"
     inkscape:current-layer="capa1"
     showgrid="false"
     fit-margin-top="0"
     fit-margin-left="0"
     fit-margin-right="0"
     fit-margin-bottom="0"
     inkscape:window-width="490"
     inkscape:window-height="469"
     inkscape:window-x="45"
     inkscape:window-y="72"
     inkscape:window-maximized="0" />
  <metadata
     id="metadata5153">
    <rdf:RDF>
      <cc:Work
         rdf:about="">
        <dc:format>image/svg+xml</dc:format>
        <dc:type
           rdf:resource="http://purl.org/dc/dcmitype/StillImage" />
        <dc:title></dc:title>
      </cc:Work>
    </rdf:RDF>
  </metadata>
  <g
     inkscape:label="Capa 1"
     inkscape:groupmode="layer"
     id="capa1"
     transform="translate(-191.6084,-356.83126)">
    <g
       transform="matrix(1.25,0,0,-1.25,112.85717,918.07737)"
       id="g4361">
      <g
         id="g4363">
        <g
           clip-path="url(#clipPath4367)"
           id="g4365">
          <g
             transform="scale(0.229721,0.229721)"
             id="g4371">
            <path
               id="path4373"
               style="fill:none;stroke:#000000;stroke-width:1.74125004;stroke-linecap:butt;stroke-linejoin:round;stroke-miterlimit:10;stroke-opacity:1;stroke-dasharray:none"
               d="m 278.598,1671.6 348.25,0 0,278.598 -348.25,0 0,-278.598 z"
               inkscape:connector-curvature="0" />
            <path
               id="path4375"
               style="fill:none;stroke:#000000;stroke-width:1.74125004;stroke-linecap:butt;stroke-linejoin:round;stroke-miterlimit:10;stroke-opacity:1;stroke-dasharray:none"
               d="m 278.598,1880.55 348.25,0"
               inkscape:connector-curvature="0" />
            <path
               id="path4377"
               style="fill:none;stroke:#000000;stroke-width:1.74125004;stroke-linecap:butt;stroke-linejoin:round;stroke-miterlimit:10;stroke-opacity:1;stroke-dasharray:none"
               d="m 278.598,1810.89 348.25,0"
               inkscape:connector-curvature="0" />
            <path
               id="path4379"
               style="fill:none;stroke:#000000;stroke-width:1.74125004;stroke-linecap:butt;stroke-linejoin:round;stroke-miterlimit:10;stroke-opacity:1;stroke-dasharray:none"
               d="m 278.598,1741.25 348.25,0"
               inkscape:connector-curvature="0" />
            <path
               id="path4381"
               style="fill:none;stroke:#000000;stroke-width:1.74125004;stroke-linecap:butt;stroke-linejoin:round;stroke-miterlimit:10;stroke-opacity:1;stroke-dasharray:none"
               d="m 348.25,1950.2 0,-278.6"
               inkscape:connector-curvature="0" />
            <path
               id="path4383"
               style="fill:none;stroke:#000000;stroke-width:1.74125004;stroke-linecap:butt;stroke-linejoin:round;stroke-miterlimit:10;stroke-opacity:1;stroke-dasharray:none"
               d="m 417.898,1950.2 0,-278.6"
               inkscape:connector-curvature="0" />
            <path
               id="path4385"
               style="fill:none;stroke:#000000;stroke-width:1.74125004;stroke-linecap:butt;stroke-linejoin:round;stroke-miterlimit:10;stroke-opacity:1;stroke-dasharray:none"
               d="m 487.551,1950.2 0,-278.6"
               inkscape:connector-curvature="0" />
            <path
               id="path4387"
               style="fill:none;stroke:#000000;stroke-width:1.74125004;stroke-linecap:butt;stroke-linejoin:round;stroke-miterlimit:10;stroke-opacity:1;stroke-dasharray:none"
               d="m 557.199,1950.2 0,-278.6"
               inkscape:connector-curvature="0" />
            <path
               id="path4389"
               style="fill:#000000;fill-opacity:1;fill-rule:evenodd;stroke:none"
               d="m 396.133,1845.72 c 0,7.21 -5.848,13.06 -13.059,13.06 -7.211,0 -13.058,-5.85 -13.058,-13.06 0,-7.21 5.847,-13.06 13.058,-13.06 7.211,0 13.059,5.85 13.059,13.06"
               inkscape:connector-curvature="0" />
            <path
               id="path4391"
               style="fill:#000000;fill-opacity:1;fill-rule:evenodd;stroke:none"
               d="m 535.434,1915.37 c 0,7.22 -5.848,13.06 -13.059,13.06 -7.215,0 -13.059,-5.84 -13.059,-13.06 0,-7.21 5.844,-13.06 13.059,-13.06 7.211,0 13.059,5.85 13.059,13.06"
               inkscape:connector-curvature="0" />
            <path
               id="path4393"
               style="fill:#000000;fill-opacity:1;fill-rule:evenodd;stroke:none"
               d="m 605.082,1706.42 c 0,7.21 -5.844,13.06 -13.059,13.06 -7.21,0 -13.058,-5.85 -13.058,-13.06 0,-7.21 5.848,-13.06 13.058,-13.06 7.215,0 13.059,5.85 13.059,13.06"
               inkscape:connector-curvature="0" />
            <path
               id="path4395"
               style="fill:#000000;fill-opacity:1;fill-rule:evenodd;stroke:none"
               d="m 535.434,1776.07 c 0,7.22 -5.848,13.06 -13.059,13.06 -7.215,0 -13.059,-5.84 -13.059,-13.06 0,-7.21 5.844,-13.06 13.059,-13.06 7.211,0 13.059,5.85 13.059,13.06"
               inkscape:connector-curvature="0" />
            <path
               id="path4397"
               style="fill:none;stroke:#000000;stroke-width:8.70623016;stroke-linecap:butt;stroke-linejoin:round;stroke-miterlimit:10;stroke-opacity:1;stroke-dasharray:none"
               d="m 278.598,1810.89 208.953,0 0,139.301 -208.953,0 0,-139.301 z"
               inkscape:connector-curvature="0" />
            <path
               id="path4399"
               style="fill:none;stroke:#000000;stroke-width:8.70623016;stroke-linecap:butt;stroke-linejoin:round;stroke-miterlimit:10;stroke-opacity:1;stroke-dasharray:none"
               d="m 278.598,1671.6 278.602,0 0,139.297 -278.602,0 0,-139.297 z"
               inkscape:connector-curvature="0" />
            <path
               id="path4401"
               style="fill:none;stroke:#000000;stroke-width:8.70623016;stroke-linecap:butt;stroke-linejoin:round;stroke-miterlimit:10;stroke-opacity:1;stroke-dasharray:none"
               d="m 557.199,1671.6 69.6484,0 0,139.297 -69.6484,0 0,-139.297 z"
               inkscape:connector-curvature="0" />
            <path
               id="path4403"
               style="fill:none;stroke:#000000;stroke-width:8.70623016;stroke-linecap:butt;stroke-linejoin:round;stroke-miterlimit:10;stroke-opacity:1;stroke-dasharray:none"
               d="m 487.551,1810.89 139.297,0 0,139.301 -139.297,0 0,-139.301 z"
               inkscape:connector-curvature="0" />
          </g>
        </g>
      </g>
    </g>
  </g>
</svg>
